<svg xmlns="http://www.w3.org/2000/svg" width="180" height="51" viewBox="0 0 180 51" fill="none">
  <path fill-rule="evenodd" clip-rule="evenodd" d="M30.4228 51L-6.47885e-05 41.1862L-6.35421e-05 13.3767L24.3213 1.0901e-06L24.3213 21.2223L30.4228 23.1906L30.4228 51ZM15.7492 18.7997L12.2051 24.1457L6.72537 22.247L10.3816 16.7435L4.55069 14.8619L21.2813 5.47227L21.2813 20.261L15.9263 18.5329L15.7492 18.7997Z" fill="url(#paint0_linear_163_79)"/>
  <path d="M51.2078 34.8562V21.4969H43.5303V18.4212H62.6183V21.4969H54.9408V34.8562H51.2078Z" fill="#fff"/>
  <path d="M62.7486 30.8179C62.7486 28.1413 65.0025 26.7795 69.3695 26.7795C70.7782 26.7795 73.0322 26.8735 74.2296 27.0143C74.2296 26.8969 74.2296 26.7326 74.2296 26.5917C74.1122 24.8778 72.9617 24.1969 70.2852 24.1969C68.1956 24.1969 65.8008 24.4317 64.1103 24.8073V21.9195C65.519 21.6143 68.2191 21.2856 70.52 21.2856C75.4739 21.2856 77.8688 22.9056 77.8688 26.2395V34.8562H74.6757L74.3939 33.2596C73.1496 34.457 71.2713 35.1144 68.7826 35.1144C64.9086 35.1144 62.7486 33.5648 62.7486 30.8179ZM74.2531 30.2544V29.1744C73.0557 29.1509 70.9661 29.1509 69.8156 29.1509C67.5852 29.1509 66.4582 29.7613 66.4582 30.9118C66.4582 32.0153 67.5147 32.5553 69.6982 32.5553C71.6469 32.5553 73.807 31.71 74.2531 30.2544Z" fill="#fff"/>
  <path d="M79.9785 25.136L80.8003 18.1864H84.1108L82.5846 25.136H79.9785Z" fill="#fff"/>
  <path d="M86.4083 34.8562V17.482H90.024V34.8562H86.4083Z" fill="#fff"/>
  <path d="M92.8314 17.7873C92.8314 16.4959 93.7001 15.8855 95.0384 15.8855C96.3297 15.8855 97.1984 16.4959 97.1984 17.7873C97.1984 19.1255 96.3297 19.7595 95.0384 19.7595C93.7001 19.7595 92.8314 19.1255 92.8314 17.7873ZM93.207 34.8562V21.5204H96.8227V34.8562H93.207Z" fill="#fff"/>
  <path d="M103.293 21.5204L103.481 22.436C105.148 21.7082 107.096 21.2856 108.528 21.2856C110.219 21.2856 111.628 21.896 112.543 22.8821C114.375 21.9195 116.793 21.2856 118.507 21.2856C121.465 21.2856 123.578 23.1404 123.578 25.6291V34.8562H119.962V26.9674C119.962 25.3004 119 24.3613 117.333 24.3613C116.323 24.3613 114.891 24.7369 113.506 25.3943C113.576 25.5821 113.6 25.8169 113.6 26.0517V34.8562H109.984V26.9674C109.984 25.3004 109.021 24.3613 107.355 24.3613C106.368 24.3613 104.96 24.7134 103.621 25.3474V34.8562H100.006V21.5204H103.293Z" fill="#fff"/>
  <path d="M130.347 34.8798V18.4448H140.114C145.162 18.4448 147.486 20.2996 147.486 24.0092C147.486 27.7658 145.162 29.5971 140.114 29.5971H134.08V34.8798H130.347ZM140.067 21.497H134.08V26.5449H140.067C142.602 26.5449 143.682 25.7232 143.682 24.0092C143.682 22.3188 142.602 21.497 140.067 21.497Z" fill="#fff"/>
  <path d="M150.069 21.544H153.168L153.661 23.3753C155.164 22.1075 157.23 21.3092 159.367 21.3092C160.235 21.3092 161.175 21.4266 161.527 21.5205V24.7371C160.94 24.5962 160.329 24.5492 159.742 24.5492C157.371 24.5727 154.929 25.418 153.685 26.9675V34.8798H150.069V21.544Z" fill="#fff"/>
  <path d="M162.787 28.2119C162.787 24.0797 165.886 21.3092 171.215 21.3092C176.521 21.3092 179.621 24.0797 179.621 28.2119C179.621 32.3441 176.521 35.1146 171.215 35.1146C165.886 35.1146 162.787 32.3441 162.787 28.2119ZM166.52 28.2119C166.52 30.6302 168.374 32.1093 171.215 32.1093C174.056 32.1093 175.888 30.6302 175.888 28.2119C175.888 25.8171 174.056 24.3145 171.215 24.3145C168.374 24.3145 166.52 25.8171 166.52 28.2119Z" fill="#fff"/>
  <defs>
    <linearGradient id="paint0_linear_163_79" x1="4.88302" y1="45.9257" x2="46.0328" y2="-9.23891" gradientUnits="userSpaceOnUse">
      <stop offset="0.132561" stop-color="#fff"/>
      <stop offset="1" stop-color="#fff"/>
    </linearGradient>
  </defs>
</svg>