<svg width="88" height="28" viewBox="0 0 88 28" fill="none" xmlns="http://www.w3.org/2000/svg">
    <g clip-path="url(#clip0_293_3775)">
        <path d="M39.0664 18.9659C38.4083 18.9659 37.81 18.8537 37.2716 18.6853C36.7331 18.517 36.2545 18.2365 35.8357 17.8437C35.4169 17.4509 35.1178 17.002 34.8785 16.4409C34.6392 15.8798 34.5195 15.2064 34.5195 14.477V14.1403C34.5195 13.467 34.6392 12.8497 34.8785 12.2886C35.1178 11.7836 35.4768 11.3347 35.8956 10.9419C36.3144 10.5492 36.793 10.3247 37.3314 10.1003C37.8699 9.93193 38.4682 9.8197 39.0664 9.8197C39.7245 9.8197 40.263 9.87581 40.8014 10.0441C41.28 10.2125 41.6988 10.4369 42.0578 10.7175C42.4168 10.998 42.6561 11.3347 42.8954 11.7275C43.0749 12.1203 43.1945 12.5131 43.2544 12.962H40.9211C40.8014 12.5692 40.5621 12.2325 40.3228 12.0081C40.0237 11.7836 39.6647 11.6714 39.1263 11.6714C38.8271 11.6714 38.528 11.7275 38.2887 11.8397C38.0494 11.9519 37.81 12.0642 37.5707 12.2886C37.3913 12.5131 37.2118 12.7375 37.0921 13.0742C36.9725 13.3547 36.9126 13.7475 36.9126 14.1964V14.5331C36.9126 14.982 36.9725 15.3748 37.0921 15.7114C37.2118 16.0481 37.3314 16.3287 37.5707 16.497C37.7502 16.7214 37.9895 16.8898 38.2887 16.9459C38.528 17.0581 38.8271 17.1142 39.1263 17.1142C39.6049 17.1142 39.9638 17.002 40.3228 16.7776C40.6219 16.5531 40.8613 16.2164 40.9809 15.8237H43.3142C43.2544 16.3287 43.1347 16.7214 42.8954 17.1142C42.6561 17.507 42.3569 17.8437 41.998 18.1242C41.639 18.4048 41.2202 18.6292 40.7416 18.7415C40.2031 18.9098 39.6647 18.9659 39.0664 18.9659Z" fill="#070708"/>
        <path d="M47.9789 18.9096C47.4405 18.9096 46.9619 18.8534 46.6029 18.7973C46.2439 18.6851 45.885 18.5168 45.6457 18.2923C45.4064 18.0679 45.2269 17.7312 45.1072 17.3384C44.9876 16.9456 44.9277 16.4406 44.9277 15.8795V7.29443H47.261V15.599C47.261 15.8795 47.261 16.104 47.3208 16.2723C47.3807 16.4406 47.4405 16.609 47.5003 16.7212C47.62 16.8334 47.7396 16.9456 47.8593 16.9456C48.0388 17.0018 48.2183 17.0018 48.4576 17.0018C48.5772 17.0018 48.6969 17.0018 48.8165 17.0018C48.9362 17.0018 48.996 17.0018 49.1157 17.0018V18.7973C49.0558 18.7973 48.996 18.7973 48.8764 18.8534C48.8165 18.8534 48.6969 18.8534 48.5772 18.8534C48.4576 18.8534 48.3977 18.8534 48.2781 18.8534H47.9789V18.9096Z" fill="#070708"/>
        <path d="M51.9288 9.14624C51.51 9.14624 51.151 9.03402 50.9117 8.80957C50.6724 8.58513 50.5527 8.30457 50.5527 7.9679C50.5527 7.63123 50.6724 7.35067 50.9117 7.12622C51.151 6.90177 51.51 6.78955 51.9288 6.78955C52.3476 6.78955 52.7065 6.90177 52.9458 7.12622C53.1851 7.35067 53.3048 7.63123 53.3048 7.9679C53.3048 8.30457 53.1851 8.58513 52.9458 8.80957C52.7065 9.03402 52.4074 9.14624 51.9288 9.14624ZM50.792 10.1001H53.1253V18.7975H50.792V10.1001Z" fill="#070708"/>
        <path d="M59.4688 18.9658C58.8107 18.9658 58.2124 18.8536 57.6739 18.6852C57.1355 18.5169 56.6569 18.2363 56.2381 17.8436C55.8193 17.4508 55.5201 17.0019 55.2808 16.4408C55.0415 15.8796 54.9219 15.2063 54.9219 14.4769V14.1402C54.9219 13.4668 55.0415 12.8496 55.2808 12.2885C55.5201 11.7835 55.8791 11.3346 56.2979 10.9418C56.7167 10.549 57.1953 10.3246 57.7338 10.1001C58.2722 9.9318 58.8705 9.81958 59.4688 9.81958C60.1269 9.81958 60.6653 9.87569 61.2038 10.044C61.6824 10.2124 62.1012 10.4368 62.4601 10.7174C62.8191 10.9979 63.0584 11.3346 63.2977 11.7274C63.4772 12.1202 63.5969 12.5129 63.6567 12.9618H61.3234C61.2038 12.5691 60.9645 12.2324 60.7251 12.0079C60.426 11.7835 60.067 11.6713 59.5286 11.6713C59.2295 11.6713 58.9303 11.7274 58.691 11.8396C58.4517 11.9518 58.2124 12.064 57.9731 12.2885C57.7936 12.5129 57.6141 12.7374 57.4945 13.0741C57.3748 13.3546 57.315 13.7474 57.315 14.1963V14.533C57.315 14.9819 57.3748 15.3746 57.4945 15.7113C57.6141 16.048 57.7338 16.3285 57.9731 16.4969C58.1526 16.7213 58.3919 16.8897 58.691 16.9458C58.9303 17.058 59.2295 17.1141 59.5286 17.1141C60.0072 17.1141 60.3662 17.0019 60.7251 16.7774C61.0243 16.553 61.2636 16.2163 61.3832 15.8235H63.7165C63.6567 16.3285 63.537 16.7213 63.2977 17.1141C63.0584 17.5069 62.7593 17.8436 62.4003 18.1241C62.0414 18.4047 61.6226 18.6291 61.1439 18.7413C60.6055 18.9097 60.067 18.9658 59.4688 18.9658Z" fill="#070708"/>
        <path d="M65.2715 18.7976V7.29468H67.5449V13.6914L70.9551 10.1003H73.6473L70.1773 13.7475L74.0063 18.7976H71.2542L68.6218 15.2625L67.5449 16.3287V18.7976H65.2715Z" fill="#070708"/>
        <path d="M9.57241 19.0219C5.8631 15.5429 5.92293 12.4007 9.57241 8.92176C13.2219 5.49895 16.6321 5.44284 20.3414 8.92176C24.0507 12.4007 23.9908 15.5429 20.3414 19.0219C18.4867 20.7613 16.7517 21.603 14.9569 21.603C13.1621 21.6591 11.4271 20.7613 9.57241 19.0219ZM5.08534 4.7695C1.735 7.91175 0 10.9418 0 13.9718V14.0279C0 17.058 1.67517 20.088 5.08534 23.2302C8.49551 26.4286 11.7262 27.9997 14.8971 27.9997H14.9569C18.1876 27.9997 21.4183 26.3725 24.7686 23.2302C31.5291 16.8896 31.5889 11.1101 24.7686 4.71338C21.4183 1.57113 18.1876 0 14.9569 0C11.6664 0 8.43568 1.57113 5.08534 4.7695Z" fill="url(#paint0_linear_293_3775)"/>
        <path d="M77.1779 10.1556C76.5198 10.1556 75.9814 9.98723 75.6224 9.59445C75.2635 9.20166 75.084 8.64055 75.084 7.9111V4.54439H76.5198V7.74276C76.5198 8.13554 76.6395 8.47221 76.819 8.69666C76.9985 8.92111 77.2976 9.03333 77.7164 9.03333C77.9557 9.03333 78.1352 8.97722 78.3147 8.92111C78.4942 8.86499 78.6138 8.75277 78.7335 8.64055C78.8531 8.52832 78.9129 8.4161 78.9728 8.24777C79.0326 8.07943 79.0326 7.91109 79.0326 7.74276V4.48828H80.4685V9.98723H79.0924V9.14555C78.9728 9.42611 78.7335 9.65056 78.4343 9.81889C78.0754 10.0433 77.6566 10.1556 77.1779 10.1556Z" fill="url(#paint1_linear_293_3775)"/>
        <path d="M81.7246 12.0639V4.48881H83.1006V5.33049C83.2801 5.04993 83.5194 4.82548 83.8186 4.65715C84.1177 4.48881 84.5365 4.37659 85.0151 4.37659C85.7929 4.37659 86.451 4.60103 86.8698 5.04993C87.2886 5.49882 87.5279 6.17216 87.5279 7.06995V7.2944C87.5279 7.74329 87.4681 8.19218 87.3484 8.52885C87.2287 8.86552 87.0493 9.20219 86.8698 9.42664C86.6305 9.65109 86.3912 9.81942 86.092 9.93165C85.7929 10.0439 85.4339 10.1 85.0749 10.1C84.6562 10.1 84.357 10.0439 83.998 9.87553C83.6989 9.7072 83.4596 9.48275 83.2203 9.20219V12.0639H81.7246ZM84.6562 8.97775C84.8356 8.97775 85.0151 8.92163 85.1946 8.86552C85.3741 8.80941 85.4937 8.69719 85.6134 8.52885C85.7331 8.41663 85.8527 8.19218 85.9125 8.02385C85.9724 7.7994 86.0322 7.57495 86.0322 7.2944V7.06995C86.0322 6.78939 85.9724 6.56494 85.9125 6.39661C85.8527 6.22827 85.7331 6.05994 85.6134 5.8916C85.4937 5.77938 85.3741 5.66716 85.1946 5.61104C85.0151 5.55493 84.8356 5.49882 84.6562 5.49882C84.4767 5.49882 84.2374 5.55493 84.0579 5.61104C83.8784 5.66716 83.6989 5.77938 83.5793 5.8916C83.4596 6.00383 83.3399 6.17216 83.2801 6.3405C83.2203 6.50883 83.1605 6.67717 83.1605 6.90161V7.51884C83.1605 7.74329 83.2203 7.96774 83.2801 8.13607C83.3399 8.30441 83.4596 8.47274 83.5793 8.58496C83.6989 8.69719 83.8784 8.80941 84.0579 8.86552C84.2374 8.92163 84.4168 8.97775 84.6562 8.97775Z" fill="url(#paint2_linear_293_3775)"/>
    </g>
    <defs>
        <linearGradient id="paint0_linear_293_3775" x1="4.80834" y1="23.4467" x2="23.5118" y2="3.6167" gradientUnits="userSpaceOnUse">
            <stop stop-color="#0073FF"/>
            <stop offset="1" stop-color="#00DEFF"/>
        </linearGradient>
        <linearGradient id="paint1_linear_293_3775" x1="75.5192" y1="9.94722" x2="82.3643" y2="0.490657" gradientUnits="userSpaceOnUse">
            <stop offset="0.1022" stop-color="#0073FF"/>
            <stop offset="1" stop-color="#00DEFF"/>
        </linearGradient>
        <linearGradient id="paint2_linear_293_3775" x1="79.4632" y1="12.8027" x2="86.3082" y2="3.34616" gradientUnits="userSpaceOnUse">
            <stop stop-color="#0073FF"/>
            <stop offset="1" stop-color="#00DEFF"/>
        </linearGradient>
        <clipPath id="clip0_293_3775">
            <rect width="88" height="28" fill="white"/>
        </clipPath>
    </defs>
</svg>
