<svg width="75" height="24" viewBox="0 0 75 24" fill="none" xmlns="http://www.w3.org/2000/svg">
<path d="M26.8534 20.8181C27.02 20.3746 27.5116 20.1628 27.9593 20.3129C28.395 20.459 28.8402 20.5665 29.307 20.5665C29.9504 20.5665 30.502 20.4466 30.9616 20.2066C31.8528 19.7936 32.1829 18.7439 32.5611 17.9084L28.0851 5.92402C27.9291 5.50629 28.2366 5.06068 28.681 5.06068H31.3457C31.7095 5.06068 32.0329 5.29361 32.1495 5.63968L34.4916 12.5921L36.8337 5.63968C36.9502 5.29361 37.2736 5.06068 37.6375 5.06068H40.1323C40.5778 5.06068 40.8855 5.50854 40.7272 5.9267L35.6774 19.2652C35.0891 20.7788 34.3169 21.9418 33.3609 22.754C32.4049 23.5846 31.1455 24 29.5827 24C28.6616 24 27.7604 23.8309 26.8954 23.5366C26.3654 23.3562 26.1238 22.76 26.3214 22.2342L26.8534 20.8181Z" fill="#1B9684"/>
<path d="M22.6713 16.7731C21.6979 17.7505 20.462 18.0252 19.0721 18.0192C16.6023 18.0084 14.5489 16.7931 13.7362 14.4473C13.1226 12.676 13.1096 10.5404 13.7362 8.77101C14.5595 6.44607 16.6002 5.06068 19.0863 5.06068C20.4218 5.06068 21.6693 5.25054 22.6713 6.14056V5.91265C22.6713 5.44212 23.0512 5.06068 23.5199 5.06068H26.5407V18.0192H23.5199C23.0512 18.0192 22.6713 17.6377 22.6713 17.1672V16.7731ZM22.1474 13.9766C22.6438 13.3305 22.892 12.5183 22.892 11.5399C22.892 10.4324 22.6162 9.59246 22.0646 9.02022C20.9851 7.86162 18.9175 7.84306 17.928 9.13097C16.9193 10.4553 16.9452 12.6892 17.9556 14.0042C18.9671 15.2832 21.1545 15.2689 22.1474 13.9766Z" fill="#1B9684"/>
<path d="M6.48691 0.0766602H2.91455C1.9641 0.0766602 1.48887 0.0766602 1.12584 0.262379C0.806516 0.425741 0.546895 0.686411 0.38419 1.00703C0.199219 1.37152 0.199219 1.84867 0.199219 2.80296V3.39934H6.15598C7.03847 3.39934 7.71871 3.63009 8.19673 4.09157C8.25878 4.14695 8.31695 4.20434 8.37124 4.26376C8.75129 4.67967 8.94132 5.19451 8.94132 5.80829C8.94132 5.85444 8.94042 5.90012 8.93863 5.94533C8.9117 6.62349 8.68278 7.1962 8.25188 7.66345C8.19673 7.72575 8.13769 7.78416 8.07478 7.83867C7.6344 8.22026 7.00399 8.41106 6.18356 8.41106H0.199219V15.2928C0.199219 16.2471 0.199219 16.7243 0.38419 17.0888C0.546895 17.4094 0.806516 17.6701 1.12584 17.8334C1.48887 18.0191 1.9641 18.0192 2.91455 18.0192H3.88401V11.5953H6.56965C7.4889 11.5953 8.32542 11.4661 9.07921 11.2076C9.85138 10.9492 10.5132 10.5708 11.0648 10.0724C11.6163 9.55554 12.0392 8.91869 12.3334 8.16186C12.6459 7.38656 12.8022 6.50051 12.8022 5.50371C12.8022 4.67304 12.6551 3.92543 12.3609 3.2609C12.0668 2.59636 11.6439 2.03335 11.0924 1.57187C10.5408 1.09192 9.86977 0.722737 9.07921 0.464306C8.30704 0.205876 7.44294 0.0766602 6.48691 0.0766602Z" fill="#1B9684"/>
<path d="M61.8761 5.95003C61.6973 5.52856 62.0054 5.0607 62.4616 5.0607H65.162C65.5136 5.0607 65.8288 5.27844 65.9545 5.60815L68.3106 11.7891L70.6402 5.61101C70.7651 5.2798 71.081 5.0607 71.4338 5.0607H73.9627C74.4199 5.0607 74.728 5.53041 74.5473 5.95214L69.5517 17.6146C69.4177 17.9273 69.1112 18.1299 68.7722 18.1299H67.6029C67.2628 18.1299 66.9555 17.926 66.8222 17.6118L61.8761 5.95003Z" fill="#6E7787"/>
<path d="M55.0922 14.9457C55.5702 14.9457 55.9838 14.8534 56.3332 14.6688C56.7009 14.4842 57.0042 14.2442 57.2432 13.9489C57.5006 13.6351 57.6844 13.2751 57.7948 12.869C57.9235 12.4444 57.9878 12.0014 57.9878 11.5399C57.9878 11.0785 57.9235 10.6447 57.7948 10.2386C57.6844 9.81399 57.5006 9.45403 57.2432 9.15868C57.0042 8.84488 56.7009 8.59567 56.3332 8.41108C55.9838 8.22649 55.5702 8.13419 55.0922 8.13419C54.6141 8.13419 54.1913 8.22649 53.8236 8.41108C53.4743 8.59567 53.1709 8.84488 52.9135 9.15868C52.6745 9.45403 52.4907 9.81399 52.362 10.2386C52.2333 10.6447 52.1689 11.0785 52.1689 11.5399C52.1689 12.0014 52.2333 12.4444 52.362 12.869C52.4907 13.2751 52.6745 13.6351 52.9135 13.9489C53.1709 14.2442 53.4743 14.4842 53.8236 14.6688C54.1913 14.8534 54.6141 14.9457 55.0922 14.9457ZM55.0922 18.4345C54.0442 18.4345 53.0974 18.2591 52.2517 17.9084C51.4243 17.5392 50.7073 17.0501 50.1006 16.4409C49.5123 15.8133 49.0619 15.0841 48.7493 14.2535C48.4368 13.4043 48.2805 12.4998 48.2805 11.5399C48.2805 10.5801 48.4368 9.68478 48.7493 8.8541C49.0619 8.02343 49.5123 7.29429 50.1006 6.66667C50.7073 6.03905 51.4243 5.54988 52.2517 5.19915C53.0974 4.82997 54.0442 4.64537 55.0922 4.64537C56.1401 4.64537 57.0777 4.82997 57.9051 5.19915C58.7508 5.54988 59.4678 6.03905 60.0561 6.66667C60.6628 7.29429 61.1225 8.02343 61.435 8.8541C61.7476 9.68478 61.9038 10.5801 61.9038 11.5399C61.9038 12.4998 61.7476 13.4043 61.435 14.2535C61.1225 15.0841 60.6628 15.8133 60.0561 16.4409C59.4678 17.0501 58.7508 17.5392 57.9051 17.9084C57.0777 18.2591 56.1401 18.4345 55.0922 18.4345Z" fill="#6E7787"/>
<path d="M42.4727 1.70394C42.4727 0.762878 43.2325 0 44.1697 0H46.5541V18.0192H44.1697C43.2325 18.0192 42.4727 17.2563 42.4727 16.3152V1.70394Z" fill="#6E7787"/>
<ellipse cx="6.32115" cy="5.91657" rx="1.1688" ry="1.17353" fill="#FF831B"/>
</svg>
