<svg width="70" height="24" viewBox="0 0 70 24" fill="none" xmlns="http://www.w3.org/2000/svg">
    <path d="M11.5086 4.97835C11.2626 4.58853 10.9419 4.24903 10.564 3.97861C10.1825 3.72317 9.76437 3.5244 9.32337 3.38876C8.8442 3.23528 8.34948 3.13304 7.84783 3.08383C7.26075 3.02781 6.67113 3.00111 6.08127 3.00385H0.975603C0.857252 2.99291 0.737862 3.00533 0.624504 3.04038C0.511146 3.07544 0.406126 3.13241 0.315667 3.20792C0.225207 3.28343 0.151147 3.37595 0.0978737 3.48C0.0446006 3.58405 0.013198 3.6975 0.0055264 3.81365C0.0055264 3.81365 0.0055264 3.84364 0.0055264 3.85864V11.9766C0.713387 13.4637 1.88889 14.6899 3.35995 15.4757V13.8461C3.34874 13.7203 3.36298 13.5937 3.40184 13.4733C3.4407 13.353 3.50342 13.2413 3.58641 13.1448C3.66941 13.0482 3.77104 12.9686 3.8855 12.9105C3.99996 12.8524 4.12499 12.817 4.25344 12.8063H5.78514C7.87506 12.8063 9.46973 12.3781 10.5692 11.5217C11.6686 10.6652 12.2268 9.39555 12.2438 7.71265C12.2456 7.22767 12.1873 6.74426 12.0702 6.27302C11.9535 5.8153 11.764 5.37841 11.5086 4.97835ZM8.51667 9.15228C8.33861 9.45226 8.07393 9.69399 7.75593 9.8471C7.41136 10.0082 7.03906 10.1049 6.65821 10.132C6.23988 10.183 5.81867 10.2081 5.39711 10.207H3.92668C3.57439 10.207 3.35484 9.92708 3.35484 9.51719V6.16805C3.34977 6.09456 3.36134 6.02089 3.38873 5.95229C3.41612 5.8837 3.45865 5.82187 3.51329 5.77125C3.56793 5.72062 3.63332 5.68244 3.70478 5.65944C3.77624 5.63643 3.85202 5.62917 3.92668 5.63818H5.39711C5.87364 5.63818 6.32294 5.65151 6.74501 5.67817C7.12116 5.69584 7.49035 5.78409 7.83251 5.9381C8.14732 6.07533 8.40994 6.30621 8.58305 6.59794C8.77852 6.98909 8.86817 7.42282 8.84344 7.85761C8.85336 8.30828 8.74058 8.75341 8.51667 9.14728V9.15228ZM3.36506 15.9655C2.10598 15.5208 0.959963 14.8149 0.0055264 13.8961V17.8201C-0.00516556 17.8948 -0.000309626 17.9709 0.0198023 18.0438C0.0399142 18.1166 0.0748669 18.1848 0.122559 18.2441C0.170251 18.3034 0.229698 18.3526 0.297327 18.3888C0.364955 18.4251 0.439368 18.4475 0.516093 18.4549H2.82385C3.43653 18.4549 3.36506 17.8151 3.36506 17.8151V15.9655ZM35.0815 7.27776H33.0902C32.9002 7.26559 32.7119 7.31964 32.5587 7.43034C32.4054 7.54103 32.2971 7.70124 32.2529 7.88261L29.9401 14.121C29.9401 14.121 27.8978 8.43746 27.7446 7.99758C27.7016 7.79461 27.5891 7.61211 27.4256 7.4803C27.2622 7.34849 27.0577 7.27527 26.846 7.27276H25.0131C24.3596 7.27276 24.3596 7.77263 24.4464 7.96759C24.5332 8.16254 27.04 14.8908 28.0203 17.4652C28.1747 17.7821 28.283 18.1186 28.342 18.4649C28.2784 18.8067 28.1466 19.1329 27.9539 19.4247C27.8794 19.5484 27.794 19.6654 27.6987 19.7746C29.5878 19.2247 31.7832 17.2202 32.886 15.0558C33.9991 12.0565 35.4644 8.05756 35.5308 7.85261C35.6022 7.53769 35.6022 7.27776 35.0815 7.27776ZM26.2078 20.3844C26.037 20.3799 25.8666 20.3666 25.6972 20.3444C25.4879 20.3144 25.0897 20.3444 25.0897 20.6943V22.1939C25.0897 22.7688 25.3756 22.8088 25.5237 22.8488C25.9965 22.9503 26.4794 23.0006 26.9634 22.9987C27.5355 23.0135 28.1033 22.8989 28.6228 22.6638C29.098 22.4288 29.52 22.1024 29.8635 21.7041C30.2529 21.2681 30.5825 20.7841 30.8438 20.2644C31.1263 19.7112 31.3952 19.0997 31.6505 18.4299L31.9466 17.6351C31.3543 18.21 28.7402 20.6243 26.2078 20.3844ZM23.1955 9.0723C23.087 8.81971 22.9388 8.58527 22.7564 8.37748C22.5719 8.185 22.3625 8.01695 22.1335 7.87761C21.8861 7.71269 21.6228 7.57205 21.3472 7.45772C21.0667 7.35127 20.7782 7.26605 20.4844 7.20278C20.1481 7.12995 19.8068 7.0815 19.4632 7.05782C19.0956 7.02116 18.6838 7.00283 18.2277 7.00283C15.1847 7.00283 13.4522 7.94259 13.0301 9.82211C13.0121 9.89217 13.0098 9.96521 13.0234 10.0362C13.037 10.1072 13.0661 10.1745 13.1088 10.2334C13.1515 10.2923 13.2068 10.3415 13.2708 10.3775C13.3347 10.4135 13.4059 10.4355 13.4794 10.442H15.3532C15.8637 10.442 15.8637 10.287 16.0577 9.8571C16.1428 9.62306 16.2953 9.41817 16.4968 9.26725C16.9756 8.96469 17.5418 8.82259 18.1102 8.86236C18.6403 8.80931 19.1727 8.93831 19.6164 9.22726C19.9548 9.53653 20.1548 9.96409 20.1729 10.417C20.1729 11.0368 19.9789 11.4467 19.1926 11.4467C17.3291 11.3817 15.3276 11.5867 14.1993 12.2215C13.6438 12.5535 13.1879 13.0233 12.8776 13.5833C12.5674 14.1434 12.4139 14.7738 12.4327 15.4107C12.4199 15.9068 12.5229 16.3991 12.734 16.8503C12.9327 17.2424 13.221 17.5845 13.5764 17.8501C13.9494 18.148 14.3801 18.369 14.8426 18.4999C15.3651 18.6384 15.9045 18.7057 16.4458 18.6998C17.1739 18.7109 17.8993 18.6097 18.5953 18.3999C19.2104 18.1532 19.7918 17.8324 20.3261 17.4452V17.7951C20.3261 18.14 20.4333 18.4499 20.8366 18.4499H23.0066C23.4456 18.4499 23.5478 18.145 23.5478 17.7651V11.2218C23.5504 10.8136 23.5214 10.4059 23.461 10.0021C23.4128 9.68244 23.3236 9.37005 23.1955 9.0723ZM20.2291 15.5007C20.2291 15.5007 19.6675 16.6504 17.6762 16.6504C17.1988 16.6719 16.7267 16.5441 16.3283 16.2855C16.153 16.1522 16.0145 15.9781 15.9253 15.779C15.8362 15.58 15.7992 15.3623 15.8178 15.1458C15.7958 14.8549 15.8646 14.5644 16.0151 14.3127C16.1655 14.0609 16.3905 13.8599 16.6602 13.7361C17.4657 13.4331 18.3252 13.292 19.1875 13.3212C19.3195 13.3017 19.4542 13.3104 19.5824 13.3468C19.7106 13.3831 19.8292 13.4462 19.9301 13.5317C20.031 13.6172 20.1118 13.7231 20.167 13.8421C20.2221 13.9611 20.2503 14.0903 20.2495 14.221L20.2291 15.5007Z" fill="#333333"/>
    <path d="M68.8187 11.2918C69.0702 11.6879 69.2035 12.145 69.2035 12.6115C69.2035 13.0779 69.0702 13.535 68.8187 13.9311C68.3081 14.6909 65.5255 17.6002 64.6065 18.5349C63.81 19.3447 62.7327 20.1645 61.6656 20.1645H39.5632C36.5713 20.1645 36.3926 19.1648 36.3926 16.9354V7.84268C36.3926 5.55826 37.0818 4.89343 39.1292 4.89343H61.7167C62.7735 4.89343 63.7181 5.4233 64.7801 6.49302C65.7093 7.40779 68.451 10.7519 68.8187 11.2918Z" fill="#33CCCC"/>
    <path d="M41.4103 8.40722V8.35223C41.4103 8.05729 41.4103 7.77234 40.8997 7.77234H39.0462C38.6122 7.77234 38.5918 8.0023 38.5918 8.36223V10.7618C39.3229 9.76525 40.2901 8.95729 41.4103 8.40722Z" fill="white"/>
    <path d="M53.8215 17.0839V16.954V11.1654C53.8215 8.74273 52.7289 7.53137 50.5437 7.53137C49.9355 7.53843 49.3414 7.71155 48.8282 8.03124C48.2627 8.37657 47.7576 8.80863 47.3322 9.31092C47.1397 8.76803 46.7655 8.30476 46.2703 7.99625C45.7071 7.69235 45.0696 7.5454 44.4271 7.57136C43.4822 7.57485 42.5649 7.88416 41.8181 8.45114C41.6547 8.6111 38.5862 10.9505 38.5862 13.3899V17.0939C38.5862 17.2089 38.525 17.6588 39.0406 17.6588H40.9655C41.5628 17.6588 41.5067 17.2739 41.5067 17.1139V11.1155C41.8283 10.6906 42.487 9.67582 43.5745 9.67582C43.7484 9.66033 43.9235 9.69062 44.0814 9.76356C44.2394 9.83651 44.3746 9.94945 44.4731 10.0907C44.6914 10.5175 44.7867 10.9945 44.7488 11.4704V16.1442V17.1039C44.7488 17.2189 44.6875 17.6688 45.2032 17.6688H47.1076C47.705 17.6688 47.6488 17.2839 47.6488 17.1239V16.994V11.0955C47.996 10.6706 48.6699 9.65583 49.7166 9.65583C49.8926 9.64173 50.0693 9.67254 50.2294 9.74526C50.3896 9.81797 50.5278 9.93011 50.6305 10.0707C50.8524 10.4964 50.9496 10.9739 50.9113 11.4504V16.1242V17.0839C50.9113 17.1989 50.8501 17.6488 51.3657 17.6488H53.2906C53.893 17.6188 53.8215 17.2389 53.8215 17.0839Z" fill="white"/>
    <path d="M64.4381 14.7316C64.111 15.5928 63.5116 16.3292 62.7273 16.8336C61.943 17.338 61.0147 17.5841 60.0776 17.5361C57.1365 17.5361 55.1758 15.5765 55.1758 12.637C55.1758 9.69756 57.2182 7.63794 59.9754 7.63794C62.7327 7.63794 64.5709 9.50759 64.6883 12.522C64.6883 12.907 64.5913 13.2469 64.096 13.2469H57.8564C57.8973 14.8616 58.6887 15.7464 60.098 15.7464C60.4721 15.7556 60.8412 15.6598 61.1615 15.4702C61.4818 15.2806 61.7399 15.0053 61.9055 14.6766C61.9707 14.5836 62.0585 14.508 62.161 14.4565C62.2635 14.405 62.3775 14.3793 62.4927 14.3817H64.1011C64.1494 14.3794 64.1975 14.3879 64.242 14.4064C64.2865 14.4248 64.3261 14.4529 64.358 14.4884C64.3899 14.524 64.4132 14.5661 64.4262 14.6116C64.4392 14.6572 64.4415 14.7051 64.433 14.7516L64.4381 14.7316ZM59.9857 9.50259C58.8164 9.50259 58.0249 10.2974 57.8513 11.6072H62.0383C61.931 10.4624 61.2979 9.50259 59.9857 9.50259Z" fill="white"/>
</svg>
