<svg width="68" height="28" viewBox="0 0 68 28" fill="none" xmlns="http://www.w3.org/2000/svg">
    <g clip-path="url(#clip0_293_3790)">
        <path fill-rule="evenodd" clip-rule="evenodd" d="M13.4476 27.449C20.7367 27.449 26.6437 21.3609 26.6437 13.8485C26.6437 6.32311 20.7367 0.234989 13.4476 0.233398C6.1633 0.233398 0.25 6.32311 0.25 13.8485C0.25 21.3593 6.16492 27.449 13.4476 27.449ZM13.4461 4.89559C13.9598 4.89559 14.4673 4.91658 14.9608 4.96339V12.2238H11.9376V4.96339C12.4311 4.91658 12.9386 4.89559 13.4461 4.89559ZM18.5771 8.31752C19.756 8.5339 20.8818 8.83428 21.9483 9.19438H21.95V14.4476C21.95 19.2713 18.143 23.2116 13.4476 23.2116C8.7601 23.2116 4.95316 19.2713 4.95316 14.4476V9.19438C6.01966 8.83428 7.14548 8.53547 8.32446 8.31752V14.4137C8.32446 18.803 10.1358 21.109 13.4476 21.109C16.772 21.109 18.5771 18.803 18.5771 14.4137V8.31752ZM62.0399 7.08396C62.4818 6.33304 63.3669 5.83569 64.5494 5.83569C66.5434 5.83569 67.5067 7.1453 67.5112 8.76344V12.6505H65.6487V9.03478C65.6487 8.26282 65.2256 7.58138 64.3277 7.58138C63.4299 7.58138 62.9879 8.23704 62.9879 9.0073V12.6505H61.1249V9.0073C61.1249 8.23704 60.6549 7.58138 59.7508 7.58138C58.8529 7.58138 58.4563 8.26452 58.4563 9.03478V12.6505H56.5935V8.76187C56.5935 7.1453 57.6162 5.83569 59.604 5.83569C60.6205 5.83569 61.5902 6.33304 62.0399 7.08396ZM47.0107 7.58946V5.96486H40.9677V7.58946H44.5467L40.8225 11.0275V12.6522H47.2355V11.0275H43.2928L47.0107 7.58946ZM53.3097 9.46598C53.3097 10.5302 52.7288 11.0211 51.87 11.0211C51.0049 11.0211 50.4443 10.5302 50.4443 9.46598V5.96486H48.5815V9.53376C48.5815 11.8608 50.4568 12.7749 51.8763 12.7749C53.2769 12.7749 55.171 11.8608 55.171 9.53376V5.96486H53.3082V9.46598H53.3097ZM37.7385 9.46598C37.7385 10.5302 37.1577 11.0211 36.2989 11.0211C35.4339 11.0211 34.8732 10.5302 34.8732 9.46598V5.96486H33.0104V9.53376C33.0104 11.8608 34.8858 12.7749 36.3051 12.7749C37.7058 12.7749 39.5999 11.8608 39.5999 9.53376V5.96486H37.737V9.46598H37.7385ZM36.1599 22.7662C36.4457 22.8889 36.7986 22.9503 37.2171 22.9503C37.6355 22.9503 38.0337 22.8743 38.4116 22.729C38.7879 22.5804 39.1174 22.364 39.3984 22.083C39.6811 21.8021 39.9044 21.4549 40.0715 21.0414C40.2386 20.628 40.3212 20.1565 40.3212 19.6284C40.3212 19.1003 40.2386 18.6288 40.0715 18.2154C39.9044 17.802 39.6811 17.4548 39.3984 17.1738C39.1174 16.8928 38.7879 16.6764 38.4116 16.5278C38.0352 16.3777 37.6371 16.3033 37.2186 16.3033C36.808 16.3033 36.4613 16.3518 36.1802 16.4487C35.8976 16.5456 35.6634 16.6554 35.4745 16.7798C35.2527 16.9202 35.0731 17.0753 34.9358 17.2432H34.8592V13.6679H33.0136V22.9389H34.8592V21.7842H34.9482C35.0762 22.0039 35.248 22.1976 35.4619 22.3673C35.6399 22.511 35.8742 22.6434 36.1599 22.7662ZM37.9541 20.7911C37.6418 21.0995 37.2046 21.2546 36.6393 21.2546C36.0756 21.2546 35.6384 21.0995 35.3261 20.7911C35.0138 20.4827 34.8576 20.0935 34.8576 19.6252C34.8576 19.1391 35.0201 18.7467 35.3449 18.4463C35.6696 18.1459 36.1006 17.9958 36.6393 17.9958C37.203 17.9958 37.6418 18.1508 37.9541 18.4592C38.2664 18.7677 38.4225 19.1568 38.4225 19.6252C38.4225 20.0935 38.2664 20.4827 37.9541 20.7911ZM50.4834 16.3147H52.3307V17.5032H52.4337C52.5445 17.2788 52.7023 17.0801 52.9084 16.909C53.0802 16.762 53.3128 16.6247 53.6079 16.4955C53.903 16.3663 54.2809 16.3018 54.7431 16.3018C55.1194 16.3018 55.4723 16.3566 55.8002 16.4649C56.1281 16.573 56.4154 16.7443 56.659 16.9784C56.9026 17.2125 57.0931 17.508 57.2306 17.8634C57.3664 18.2186 57.4351 18.6433 57.4351 19.1374V22.9373H55.5879V19.6769C55.5879 19.1085 55.438 18.6853 55.1398 18.4092C54.8399 18.1331 54.4464 17.9958 53.9593 17.9958C53.4205 17.9958 53.0146 18.1541 52.7413 18.4673C52.468 18.7822 52.3307 19.1859 52.3307 19.6769V22.9357H50.4834V16.3147ZM60.8204 13.6662H58.9732V22.9373H60.8204V19.693L63.6937 22.9373H65.8735L62.8987 19.5331L65.6424 16.3147H63.4746L60.8204 19.4136V13.6662ZM48.6799 20.6345V16.1451H46.7702L46.7843 17.2368C46.3689 16.5957 45.6381 16.0111 44.342 16.0111C42.1123 16.0111 40.9662 17.802 40.9662 19.5977C40.9256 21.416 42.2216 23.2264 44.2468 23.2264C45.318 23.2264 46.3002 22.7338 46.7702 21.8667C46.9607 22.4382 47.4385 23.0649 48.4347 23.0649H49.5403V21.3871H49.2327C48.8438 21.3871 48.6799 21.2401 48.6799 20.6345ZM44.7449 21.4935C43.6472 21.4935 42.829 20.7119 42.829 19.6123C42.829 18.5271 43.6472 17.7583 44.7449 17.7583C45.877 17.7583 46.6953 18.5271 46.6953 19.6123C46.6953 20.7104 45.877 21.4935 44.7449 21.4935Z" fill="#6229F4"/>
    </g>
    <defs>
        <clipPath id="clip0_293_3790">
            <rect width="68" height="28" fill="white"/>
        </clipPath>
    </defs>
</svg>
